<svg width="18" height="18" viewBox="0 0 18 18" fill="none" xmlns="http://www.w3.org/2000/svg">
<path d="M8.863 4.60742C6.488 4.60742 4.59542 6.53711 4.59542 8.875C4.59542 11.25 6.488 13.1426 8.863 13.1426C11.2009 13.1426 13.1306 11.25 13.1306 8.875C13.1306 6.53711 11.2009 4.60742 8.863 4.60742ZM8.863 11.6582C7.34151 11.6582 6.07979 10.4336 6.07979 8.875C6.07979 7.35352 7.3044 6.12891 8.863 6.12891C10.3845 6.12891 11.6091 7.35352 11.6091 8.875C11.6091 10.4336 10.3845 11.6582 8.863 11.6582ZM14.281 4.45898C14.281 3.90234 13.8357 3.45703 13.279 3.45703C12.7224 3.45703 12.2771 3.90234 12.2771 4.45898C12.2771 5.01562 12.7224 5.46094 13.279 5.46094C13.8357 5.46094 14.281 5.01562 14.281 4.45898ZM17.1013 5.46094C17.0271 4.125 16.7302 2.9375 15.7653 1.97266C14.8005 1.00781 13.613 0.710938 12.2771 0.636719C10.904 0.5625 6.78487 0.5625 5.41182 0.636719C4.07589 0.710938 2.9255 1.00781 1.92354 1.97266C0.958699 2.9375 0.661824 4.125 0.587605 5.46094C0.513387 6.83398 0.513387 10.9531 0.587605 12.3262C0.661824 13.6621 0.958699 14.8125 1.92354 15.8145C2.9255 16.7793 4.07589 17.0762 5.41182 17.1504C6.78487 17.2246 10.904 17.2246 12.2771 17.1504C13.613 17.0762 14.8005 16.7793 15.7653 15.8145C16.7302 14.8125 17.0271 13.6621 17.1013 12.3262C17.1755 10.9531 17.1755 6.83398 17.1013 5.46094ZM15.32 13.7734C15.0603 14.5156 14.4665 15.0723 13.7614 15.3691C12.6482 15.8145 10.0505 15.7031 8.863 15.7031C7.63839 15.7031 5.04073 15.8145 3.96456 15.3691C3.22237 15.0723 2.66573 14.5156 2.36886 13.7734C1.92354 12.6973 2.03487 10.0996 2.03487 8.875C2.03487 7.6875 1.92354 5.08984 2.36886 3.97656C2.66573 3.27148 3.22237 2.71484 3.96456 2.41797C5.04073 1.97266 7.63839 2.08398 8.863 2.08398C10.0505 2.08398 12.6482 1.97266 13.7614 2.41797C14.4665 2.67773 15.0232 3.27148 15.32 3.97656C15.7653 5.08984 15.654 7.6875 15.654 8.875C15.654 10.0996 15.7653 12.6973 15.32 13.7734Z" fill="#292F36"/>
</svg>
