<svg width="16" height="17" viewBox="0 0 16 17" fill="none" xmlns="http://www.w3.org/2000/svg">
<path d="M3.64725 16.478V5.96631H0.377719V16.478H3.64725ZM1.99491 4.56006C3.04959 4.56006 3.89334 3.68115 3.89334 2.62646C3.89334 1.60693 3.04959 0.763184 1.99491 0.763184C0.975375 0.763184 0.131625 1.60693 0.131625 2.62646C0.131625 3.68115 0.975375 4.56006 1.99491 4.56006ZM15.8465 16.478H15.8816V10.7124C15.8816 7.8999 15.2488 5.72021 11.9441 5.72021C10.3621 5.72021 9.30741 6.59912 8.85038 7.40771H8.81522V5.96631H5.68631V16.478H8.95584V11.2749C8.95584 9.90381 9.20194 8.60303 10.8894 8.60303C12.5769 8.60303 12.6121 10.1499 12.6121 11.3804V16.478H15.8465Z" fill="#292F36"/>
</svg>
