<svg width="17" height="17" viewBox="0 0 17 17" fill="none" xmlns="http://www.w3.org/2000/svg">
<path d="M3.83475 16.4657V5.95398H0.565219V16.4657H3.83475ZM2.18241 4.54773C3.23709 4.54773 4.08084 3.66882 4.08084 2.61414C4.08084 1.5946 3.23709 0.750854 2.18241 0.750854C1.16288 0.750854 0.319125 1.5946 0.319125 2.61414C0.319125 3.66882 1.16288 4.54773 2.18241 4.54773ZM16.034 16.4657H16.0691V10.7001C16.0691 7.88757 15.4363 5.70789 12.1316 5.70789C10.5496 5.70789 9.49491 6.58679 9.03788 7.39539H9.00272V5.95398H5.87381V16.4657H9.14334V11.2626C9.14334 9.89148 9.38944 8.5907 11.0769 8.5907C12.7644 8.5907 12.7996 10.1376 12.7996 11.368V16.4657H16.034Z" fill="#292F36"/>
</svg>
