<svg width="19" height="16" viewBox="0 0 19 16" fill="none" xmlns="http://www.w3.org/2000/svg">
<path d="M16.36 4.05945C17.0631 3.5321 17.6959 2.89929 18.1881 2.16101C17.5553 2.44226 16.817 2.6532 16.0787 2.72351C16.8522 2.26648 17.4147 1.56335 17.6959 0.684448C16.9928 1.10632 16.1842 1.42273 15.3756 1.59851C14.6725 0.860229 13.7233 0.438354 12.6686 0.438354C10.6295 0.438354 8.97718 2.0907 8.97718 4.12976C8.97718 4.41101 9.01234 4.69226 9.08265 4.97351C6.02406 4.79773 3.28187 3.32117 1.45374 1.10632C1.13734 1.63367 0.961555 2.26648 0.961555 2.9696C0.961555 4.23523 1.59437 5.36023 2.6139 6.0282C2.01624 5.99304 1.41859 5.85242 0.926399 5.57117V5.60632C0.926399 7.39929 2.19202 8.87585 3.87952 9.22742C3.59827 9.29773 3.24671 9.36804 2.93031 9.36804C2.68421 9.36804 2.47327 9.33289 2.22718 9.29773C2.68421 10.7743 4.05531 11.829 5.67249 11.8641C4.40687 12.8485 2.82484 13.4462 1.10218 13.4462C0.785774 13.4462 0.504524 13.411 0.223274 13.3759C1.84046 14.4305 3.77406 15.0282 5.88343 15.0282C12.6686 15.0282 16.36 9.43835 16.36 4.55164C16.36 4.37585 16.36 4.23523 16.36 4.05945Z" fill="#292F36"/>
</svg>
